<svg width="50" height="50" viewBox="0 0 51 50" fill="none" xmlns="http://www.w3.org/2000/svg">
<path fill-rule="evenodd" clip-rule="evenodd" d="M46.0746 14.6257L44.4108 16.2294C40.9276 13.079 36.4205 11.2699 31.7013 11.1833C28.524 11.1249 25.3333 11.8835 22.5837 13.2851L29.608 6.51425C30.1459 6.88674 30.7773 7.0805 31.4138 7.09219C32.3209 7.10885 33.2363 6.76304 33.9747 6.04967C35.453 4.62467 35.4947 2.35441 34.0697 0.876078C33.3564 0.136045 32.4559 -0.243106 31.5489 -0.259766C30.6418 -0.276426 29.7263 0.0693751 28.988 0.782746C27.7853 2.03236 27.5699 3.84318 28.3617 5.21965L19.4883 13.773L17.8845 12.1093L13.3559 16.4745L14.9597 18.1383L5.9008 26.8704C5.36287 26.4979 4.73143 26.3042 4.09494 26.2925C3.18786 26.2758 2.27242 26.6216 1.53408 27.335C0.0557524 28.76 0.0140561 31.0303 1.43906 32.5086C2.15409 33.1567 3.05448 33.5376 3.96156 33.5542C4.86865 33.5709 5.78409 33.2251 6.52242 32.5117C7.72345 31.354 7.9389 29.5415 7.14868 28.0748L14.1729 21.3039C10.4145 28.2267 11.0714 36.9552 16.312 43.2244L14.6466 44.9183L19.1037 49.4486L23.6323 45.0834L19.2671 40.5548L17.6952 42.07C12.5447 35.8007 12.4358 26.9019 17.0027 20.4485L17.7161 21.1886L22.3365 16.825L21.533 16.0833C24.4764 14.0485 28.0362 13.0244 31.6663 13.091C35.9328 13.1694 39.8969 14.7863 43.1145 17.5692L41.4524 19.0828L45.9095 23.6131L50.4381 19.2478L46.0745 14.6274L46.0746 14.6257ZM21.0915 45.0367L19.1504 46.9077L17.2793 44.9667L19.2204 43.0956L21.0915 45.0367ZM30.2326 2.16754C30.6017 1.8117 31.0595 1.63795 31.5138 1.6463C31.9682 1.65464 32.4176 1.84505 32.7751 2.21423C33.4885 2.95427 33.4685 4.04344 32.7285 4.75508C32.3593 5.11092 31.9016 5.28467 31.4472 5.27632C30.9928 5.26798 30.5434 5.07756 30.1859 4.70838C29.4709 4.06025 29.4926 2.87917 30.2326 2.16754ZM5.27449 31.2171C4.90534 31.5729 4.44761 31.7467 3.99321 31.7383C3.53882 31.73 3.08948 31.5396 2.73194 31.1704C2.37445 30.8915 2.2007 30.4337 2.2107 29.8891C2.21905 29.4347 2.40946 28.9854 2.77864 28.6279C3.14782 28.2703 3.60552 28.0983 4.05992 28.1066C4.51431 28.115 4.96365 28.3054 5.32119 28.6746C6.03453 29.4146 6.01287 30.594 5.27452 31.2154L5.27449 31.2171ZM17.6726 18.6426L15.8015 16.7016L17.7426 14.8305L19.6137 16.7716L17.6726 18.6426ZM45.9562 21.0688L44.0852 19.1278L46.0262 17.2567L47.8973 19.1978L45.9562 21.0688Z" fill="#333333"/>
</svg>
